<svg xmlns="http://www.w3.org/2000/svg" width="21.093" height="21.438" viewBox="0 0 21.093 21.438">
  <defs>
    <style>
      .cls-1 {
        fill: #00e3f5;
        fill-rule: evenodd;
      }
    </style>
  </defs>
  <path id="Instagram" class="cls-1" d="M158.23,31.565h-9.449a5.874,5.874,0,0,0-5.819,5.915v9.606A5.874,5.874,0,0,0,148.781,53h9.449a5.874,5.874,0,0,0,5.819-5.915V37.479A5.874,5.874,0,0,0,158.23,31.565Zm3.948,15.52A3.986,3.986,0,0,1,158.23,51.1h-9.449a3.986,3.986,0,0,1-3.948-4.014V37.479a3.986,3.986,0,0,1,3.948-4.014h9.449a3.986,3.986,0,0,1,3.948,4.014v9.606h0Zm-8.673-10.326a5.524,5.524,0,1,0,5.434,5.524A5.485,5.485,0,0,0,153.505,36.759Zm0,9.145a3.622,3.622,0,1,1,3.563-3.621A3.6,3.6,0,0,1,153.505,45.9Zm5.662-10.758a1.366,1.366,0,0,0-.969.408,1.409,1.409,0,0,0,0,1.973,1.356,1.356,0,0,0,1.94,0,1.414,1.414,0,0,0,0-1.973A1.369,1.369,0,0,0,159.167,35.146Z" transform="translate(-142.969 -31.563)"/>
</svg>
