<svg xmlns="http://www.w3.org/2000/svg" width="21.094" height="21.438" viewBox="0 0 21.094 21.438">
  <defs>
    <style>
      .cls-1 {
        fill: #00e3f5;
        fill-rule: evenodd;
      }
    </style>
  </defs>
  <path id="LinkedIn" class="cls-1" d="M198.912,38.263h4.716V53h-4.716V38.263Zm17.561,0.173c-0.05-.017-0.1-0.034-0.15-0.049s-0.127-.027-0.191-0.038a4.144,4.144,0,0,0-.847-0.087,6.533,6.533,0,0,0-5.067,2.818V38.263H205.5V53h4.716V44.962s3.564-5.046,5.067-1.34V53H220V43.056A4.765,4.765,0,0,0,216.473,38.436Zm-15.255-6.872a2.345,2.345,0,1,1-2.306,2.344A2.326,2.326,0,0,1,201.218,31.565Z" transform="translate(-198.906 -31.563)"/>
</svg>
